<?xml version="1.0" encoding="UTF-8" standalone="no"?>
<svg id="svg2" xmlns="http://www.w3.org/2000/svg" height="800" width="682" version="1.0">
 <path id="path2383" d="m637.8 465c0 166.2-134.7 301-300.9 301-166.1 0-300.8-134.8-300.8-301-0.02-166.1 134.7-300.9 300.8-300.9 166.2 0 300.9 134.7 300.8 300.9z" style="fill:#cdcdcd"/>
 <path id="path3221" d="m619.6 361.8c0.2109 4.618 0.3433 9.319 0.3433 13.99 0 166.1-134.8 300.8-300.8 300.8-129.8 0-240.6-82.39-282.7-197.6 7.287 159.6 139.2 286.9 300.5 286.9 166.1 0 300.8-134.8 300.8-300.8 0-36.26-6.421-71.05-18.19-103.2z" style="opacity:.8;fill-opacity:.3137"/>
 <path id="path3172" d="m359.4 768.7c0 24.97 40.28 25.76 89.9 25.76s89.9 1.905 89.9-25.76c0-48.65-40.28-88.14-89.9-88.14s-89.9 39.49-89.9 88.14z" style="fill:#70665f"/>
 <path id="path3236" d="m569.4 368.1c0 124.1-151.4 224.8-224.8 224.8-70.63 0-224.8-100.7-224.8-224.8s67.63-224.8 224.8-224.8 224.8 100.7 224.8 224.8z" style="opacity:.8;fill-opacity:.3137"/>
 <path id="path3203" d="m247.3 515.4c21.29 49.25 31.21 64.06 30.57 92.24-0.2875 12.84 25.23-20.97 26.99-37.87-1.3 24.4 3.292 31.07 5.991 56.32s11.65 69.05 14.25 59.23c5.399-20.39 7.926-62.67 22.73-75.74 6.701 25.24 40.96 67.63 35.31 51.46-13.73-39.26-18.77-58.09-6.749-82.53 21.52 26.13 33.83 36.94 29.69 22.33-6.974-24.66 2.953-58.53 21.03-72.82 22.95-18.15-179.8-13.59-179.8-12.62z" style="fill:#70665f;fill-rule:evenodd"/>
 <path id="path3174" d="m483.9 792.8c0-44.95-25.93-72.61-25.93-72.61s10.37 38.03 8.644 72.61z" style="fill:#3b3b3b;fill-rule:evenodd"/>
 <path id="path3155" d="m329.6 107.2c-82.74 1.677-139.9 32-174.7 78.96-66.09-7.107-121 64.88-121 64.88 0 0.00001 51.88 25.94 88.05 4.205-6.589 23.92-9.784 49.72-9.784 76.64 0 124.1 154.1 224.8 224.8 224.8 73.37 0 224.8-100.7 224.8-224.8 0-26.91-3.196-52.71-9.784-76.64 36.17 21.74 87.97-4.205 87.97-4.205s-54.85-71.97-120.9-64.88c-35.87-48.32-95.32-78.96-182-78.96-2.455 0-4.883-0.0489-7.295 0z" style="fill:#cdcdcd"/>
 <path id="path3157" d="m327 299c0.0102 34.38-27.86 62.26-62.24 62.26s-62.25-27.88-62.24-62.26c-0.0102-34.38 27.86-62.26 62.24-62.26s62.25 27.88 62.24 62.26z" style="fill:#f7f7f7"/>
 <path id="path3159" d="m471.8 299c0.0102 34.38-27.86 62.26-62.24 62.26s-62.25-27.88-62.24-62.26c-0.0102-34.38 27.86-62.26 62.24-62.26s62.25 27.88 62.24 62.26z" style="fill:#f7f7f7"/>
 <path id="path3161" d="m416.5 310c0.003 11.46-9.286 20.75-20.75 20.75s-20.75-9.292-20.75-20.75c-0.003-11.46 9.286-20.75 20.75-20.75s20.75 9.292 20.75 20.75z" style="fill:#111"/>
 <path id="path3163" d="m301 310c0.003 11.46-9.286 20.75-20.75 20.75s-20.75-9.292-20.75-20.75c-0.003-11.46 9.286-20.75 20.75-20.75s20.75 9.292 20.75 20.75z" style="fill:#111"/>
 <path id="path3179" d="m396 138c-5.5-28.5 34.5-100 117.2-126.6 56.9-18.39 153.7 3.33 162.9 113.2-37-63.31-102.6-78.41-133.7-63.34-62.4 30.24-34.3 94.64-64.2 111.6-27.82 15.8-76.59-5.329-82.26-34.92z" style="fill:#70665f;fill-rule:evenodd"/>
 <path id="path3231" d="m552.7 258.3-5.149 7.295c0.6835 8.446 0.944 17.03 0.944 25.75 0 124.1-151.4 224.8-224.8 224.8-56.86 0.00006-167.8-65.24-208.9-155.4 20.92 110.5 157 196 222.1 196 73.37 0 224.8-100.7 224.8-224.8 0-25.79-2.953-50.56-9.011-73.64z" style="opacity:.4;fill-opacity:.3137"/>
 <path id="path3329" d="m318.2 768.7c0 24.97-40.28 25.76-89.9 25.76s-89.9 1.905-89.9-25.76c0-48.65 40.28-88.14 89.9-88.14s89.9 39.49 89.9 88.14z" style="fill:#70665f"/>
 <path id="path3331" d="m193.7 792.8c0-44.95 25.93-72.61 25.93-72.61s-10.37 38.03-8.644 72.61z" style="fill:#3b3b3b;fill-rule:evenodd"/>
 <path id="path2398" d="m382.5 476.5c-6.296 10.91-17.85 16.03-25.81 11.44-7.955-4.593-9.295-17.16-2.994-28.07 6.297-10.91 17.85-16.03 25.81-11.44 7.955 4.593 9.295 17.16 2.994 28.07z" style="fill:#111"/>
 <path id="path2412" d="m292.6 476.5c6.296 10.91 17.85 16.03 25.81 11.44 7.955-4.593 9.295-17.16 2.994-28.07-6.297-10.91-17.85-16.03-25.81-11.44-7.955 4.593-9.295 17.16-2.994 28.07z" style="fill:#111"/>
 <path id="path3173" d="m285.7 138c5.4-28.5-34.6-100-117.3-126.6-56.9-18.39-153.7 3.33-162.9 113.2 37.01-63.31 102.6-78.41 133.8-63.34 62.43 30.24 34.27 94.68 64.16 111.7 27.82 15.8 76.59-5.329 82.26-34.92z" style="fill:#70665f;fill-rule:evenodd"/>
</svg>
