<?xml version="1.0" encoding="UTF-8" standalone="no"?>
<svg id="svg2" xmlns="http://www.w3.org/2000/svg" height="800" width="838" version="1.0">
 <path id="path2383" style="fill:#b7b7b7" d="m756.9 402.4c0.0559 187.9-152.2 340.3-340 340.3-187.9 0-340.3-152.3-340-340.3-0.4-188 151.9-340.3 339.7-340.3 187.9 0 340.3 152.3 340 340.3z"/>
 <path id="path3353" style="opacity:.2" d="m755.3 432.2c-64.68 141.9-207.8 240.5-373.8 240.5-94.17 0-180.9-31.7-250.1-85.01 60.64 93.24 165.7 154.9 285.3 154.9 177.9 0 323.9-136.5 338.8-310.4z"/>
 <path id="path3245" style="fill:#b7b7b7" d="m155.7 714.5c-0.0211 70.42 57.07 79.39 127.5 79.39 70.42 0 127.5-8.97 127.5-79.39 0.0217-70.42-59.46-109.3-127.5-127.5-105.8-28.35-127.5 57.1-127.5 127.5z"/>
 <path id="path3297" style="fill-opacity:.3137" d="m323.4 600.8c17.44 22.86 28.15 51.39 28.14 86.66 0.0217 83.28-57.07 93.93-127.5 93.93-10.9 0-21.44-0.3291-31.55-1.068 23.1 11.21 55.11 13.49 90.54 13.49 70.42 0.00003 127.5-9.048 127.5-79.46 0.0155-55.95-37.57-91.94-87.13-113.5z"/>
 <path id="path3239" style="fill:#fff" d="m382.4 754.2c5.105 19.02-10.09 25.69-29.64 30.93-19.55 5.238-36.05 7.061-41.14-11.97-5.105-19.02 6.607-38.69 26.16-43.94 19.55-5.238 39.53 5.943 44.62 24.97z"/>
 <path id="path3307" style="opacity:.2" d="m699.5 324.8c0.0441 148.5-120.3 268.8-268.7 268.8-148.5 0-268.8-120.3-268.7-268.8-0.0932-148.5 120.2-268.9 268.6-268.9 148.5 0 268.8 120.3 268.7 268.8z"/>
 <path id="path2400" style="fill:#cdcdcd" d="m824.3 279.8c-27.8 103.8-112 171.5-188 151.2-76.01-20.37-115.1-121.1-87.25-224.9 27.8-103.8 93.09-101 169.1-80.67 76.01 20.37 134 50.58 106.1 154.4z"/>
 <path id="path3218" style="fill:#cdcdcd" d="m13.21 279.8c27.8 103.7 112 171.4 188 151.2 76-20.5 115.1-121.2 87.2-225-27.8-103.8-93.1-101-169.1-80.7-76 20.4-133.9 50.7-106.1 154.5z"/>
 <path id="path3309" style="fill-opacity:.3137" d="m617.5 118.5c-30.26 9.231-54.28 34.4-68.5 87.53-27.84 103.8 11.21 204.5 87.22 224.8 8.281 2.219 16.64 3.298 25.03 3.493 20.74-38.13 32.51-81.91 32.51-128.4 0.0217-72.94-29.1-139-76.26-187.5z"/>
 <path id="path3314" style="opacity:.2" d="m637 134.3c-45.86-0.4766-82.69 20.6-101.8 91.97-15.43 57.54-10.37 114 10.19 156.5 15.42-72.91 84.46-163.2 186.5-167.7 41.39-1.807 89.46 24.98 75.48-7.666-13.96-32.66-57.16-49.59-103.1-61.91-23.76-6.365-46.39-11.04-67.25-11.26z"/>
 <path id="path3321" style="opacity:.2" d="m202.2 134.3c45.86-0.4766 82.69 20.6 101.8 91.97 15.43 57.54 10.37 114-10.19 156.5-15.42-72.91-84.46-163.2-186.5-167.7-41.39-1.807-89.46 24.98-75.48-7.666 13.96-32.66 57.16-49.59 103.1-61.91 23.76-6.365 46.39-11.04 67.25-11.26z"/>
 <path id="path2398" style="fill:#cdcdcd" d="m685.5 275c0.0441 148.5-120.3 268.8-268.7 268.8-148.5 0-268.8-120.3-268.7-268.8-0.1-148.4 49.8-268.8 268.6-268.8 223.2 0 268.8 120.3 268.7 268.8z"/>
 <path id="path3157" style="fill:#fff" d="m405.4 223.9c0.0124 38.87-31.48 70.39-70.36 70.39-38.87 0-70.39-31.52-70.36-70.39-0.0115-38.87 31.48-70.39 70.36-70.39 38.87 0 70.39 31.52 70.36 70.39z"/>
 <path id="path3159" style="fill:#fff" d="m569 223.9c0.0124 38.87-31.48 70.39-70.36 70.39-38.87 0-70.39-31.52-70.36-70.39-0.0124-38.87 31.48-70.39 70.36-70.39 38.87 0 70.39 31.52 70.36 70.39z"/>
 <path id="path3161" style="fill:#111" d="m506.6 236.3c0.003 12.96-10.5 23.46-23.46 23.46s-23.46-10.51-23.46-23.46c-0.003-12.96 10.5-23.46 23.46-23.46s23.46 10.51 23.46 23.46z"/>
 <path id="path3163" style="fill:#111" d="m376.2 236.3c0.003 12.96-10.5 23.46-23.46 23.46s-23.46-10.51-23.46-23.46c-0.003-12.96 10.5-23.46 23.46-23.46s23.46 10.51 23.46 23.46z"/>
 <path id="path3220" style="fill:#b7b7b7" d="m696.4 714.5c0.0217 70.42-57.07 79.39-127.5 79.39-70.42 0-127.5-8.97-127.5-79.39-0.0217-70.42 59.46-109.3 127.5-127.5 105.8-28.35 127.5 57.1 127.5 127.5z"/>
 <path id="path2404" style="fill:#cdcdcd" d="m488.9 684.7c0.0155 49.03-39.71 88.77-88.74 88.77s-88.74-39.74-88.74-88.77c-0.0155-49.03 39.71-88.77 88.74-88.77s88.74 39.74 88.74 88.77z"/>
 <path id="path3241" style="fill:#fff" d="m253.7 774.7c-5.092 19.03-21.59 17.2-41.14 11.97-19.55-5.238-34.74-11.91-29.64-30.93 5.092-19.03 25.07-30.21 44.62-24.97 19.55 5.238 31.27 24.91 26.16 43.94z"/>
 <path id="path3302" style="opacity:.1" d="m680.8 225c-15.31 147.7-140.2 263-292 263-82.75 0-157.5-34.28-210.9-89.36 44.71 86.29 134.9 145.3 238.8 145.3 148.5 0 268.8-120.4 268.8-268.9 0.006-17.09-1.71-33.75-4.754-49.96z"/>
 <path id="path3188" style="fill:#cdcdcd;fill-rule:evenodd" d="m488.6 680h-141.8c23.8-196.5-22.9-294.2-22.9-294.2h187.6s-46.64 99.89-22.86 294.2z"/>
 <path id="path3183" style="fill:none" d="m511.6 385.6s-46.64 99.89-22.86 294.2m-141.8 0c23.8-196.5-22.9-294.2-22.9-294.2"/>
 <path id="path3190" style="fill:#fff;fill-rule:evenodd" d="m581.8 409.2c20.24 16.17 18.79 104.1 6.791 118.6-12 14.58-83.4-73.22-71.2-100.3 12.84-28.44 45.36-33.6 64.4-18.39z"/>
 <path id="path3192" style="opacity:.4;stroke:#000;stroke-linecap:round;fill:none;stroke-width:12.42" d="m368.5 350.9c45.02-45.02 96.26-1.552 96.26-1.552"/>
 <path id="path3194" style="opacity:.4;stroke:#000;stroke-linecap:round;fill:none;stroke-width:12.42" d="m384 420.7c30.6-24.49 65.42-0.8442 65.42-0.8442"/>
 <path id="path3196" style="opacity:.4;stroke:#000;stroke-linecap:round;fill:none;stroke-width:12.42" d="m389 490.6c25.8-17.64 55.14-0.6083 55.14-0.6083"/>
 <path id="path3214" style="fill:#fff;fill-rule:evenodd" d="m250.7 409.2c-20.24 16.17-18.79 104.1-6.791 118.6 12 14.58 83.4-73.22 71.2-100.3-12.84-28.44-45.36-33.6-64.4-18.39z"/>
 <path id="path3235" style="fill:#fff" d="m671.2 754.2c5.105 19.02-10.09 25.69-29.64 30.93-19.55 5.238-36.05 7.061-41.14-11.97-5.105-19.02 6.607-38.69 26.16-43.94 19.55-5.238 39.53 5.943 44.62 24.97z"/>
 <path id="path3237" style="fill:#fff" d="m542.3 774.7c-5.092 19.03-21.59 17.2-41.14 11.97-19.55-5.238-34.74-11.91-29.64-30.93 5.092-19.03 25.07-30.21 44.62-24.97 19.55 5.238 31.27 24.91 26.16 43.94z"/>
 <path id="path3224" style="fill:#fff" d="m605.4 771.6c0.006 19.7-16.4 22.21-36.64 22.21s-36.64-2.509-36.64-22.21c-0.006-19.7 16.4-35.68 36.64-35.68s36.64 15.97 36.64 35.68z"/>
 <path id="path3243" style="fill:#fff" d="m316.6 771.6c0.006 19.7-16.4 22.21-36.64 22.21s-36.64-2.509-36.64-22.21c-0.006-19.7 16.4-35.68 36.64-35.68s36.64 15.97 36.64 35.68z"/>
 <path id="path3287" style="fill-opacity:.3137" d="m482.1 650.8c-1.277 47.88-40.49 86.35-88.68 86.35-37.07-0.00003-68.84-22.81-82.1-55.11-0.0248 0.8421-0.0972 1.675-0.0969 2.523-0.0155 49.03 39.78 88.77 88.77 88.77 49.03 0 88.71-39.78 88.68-88.77 0.003-11.96-2.309-23.35-6.598-33.78z"/>
 <path id="path3358" style="opacity:.2" d="m626.5 583.1c32.79 25.32 41.45 76.6 41.42 121.9 0.0217 72.87-59.03 82.19-131.9 82.19-15.81 0-30.88-0.5117-44.93-1.941 21.53 6.893 48.5 8.442 77.81 8.442 70.42 0 127.5-8.949 127.5-79.36 0.0155-55.18-13.31-119.5-69.96-131.2z"/>
 <path id="path3363" style="opacity:.3;fill-rule:evenodd" d="m293.8 405.2c2.411 2.619 4.667 5.636 6.598 9.023 14.11 24.76-43.35 112.6-59.68 107.6 0.9486 2.626 1.952 4.713 3.105 6.114 12 14.58 83.43-73.31 71.23-100.3-4.866-10.78-12.53-18.16-21.25-22.41z"/>
</svg>
