<?xml version="1.0" encoding="UTF-8" standalone="no"?>
<svg id="svg2" xmlns="http://www.w3.org/2000/svg" height="800" width="769" version="1.0">
 <g id="g4903" style="enable-background:new" transform="matrix(2.297 0 0 2.297 -203.4 -187.9)">
  <path id="path2" d="m423.2 249.1c0 92.36-74.94 167.2-167.3 167.2-92.33 0-167.2-74.8-167.2-167.2-0.04179-92.41 74.83-167.3 167.2-167.3 92.36 0 167.3 74.89 167.3 167.3z" style="fill:#f7f7f7"/>
  <path id="path4" d="m256.2 166.8c-77.06 1.562-110.3 52.01-110.3 114 0 27.65 15.07 53.05 35.05 72.78-42.54-18.11-76.07-53.21-91.99-96.81 4.051 88.71 77.33 159.5 167 159.5 92.3 0.00001 167.2-74.9 167.2-167.2 0-20.16-3.555-39.48-10.1-57.38 0.1172 2.567 0.2176 5.153 0.2176 7.748 0 45.33-18.1 86.45-47.4 116.6 5.023-11.13 8.01-23.01 8.01-35.35 0-62.92-34.3-114-114-114-1.245 0-2.477-0.0248-3.7 0z" style="opacity:.1"/>
  <path id="path6" d="m267.4 417c0 12.66 20.42 13.07 45.61 13.07 25.17 0 45.61 0.966 45.61-13.07 0-24.68-20.42-44.7-45.61-44.7-25.17 0-45.61 20.03-45.61 44.7z" style="fill:#5d5d5d"/>
  <path id="path8" d="m246.5 417c0 12.66-20.42 13.07-45.61 13.07-25.17 0-45.61 0.966-45.61-13.07 0-24.68 20.42-44.7 45.61-44.7 25.17 0 45.61 20.03 45.61 44.7z" style="fill:#5d5d5d"/>
  <path id="path10" d="m183.3 429.3c0-22.8 13.15-36.83 13.15-36.83s-5.261 19.29-4.385 36.83z" style="fill:#3b3b3b;fill-rule:evenodd"/>
  <path id="path12" d="m258.4 350.7c-64.6-4.7-109.4 15.9-109.4 15.9s14.26-0.3449 22.32 0.9353c-15.09 10.33-20.03 30.81-20.03 30.81s16.83-18.03 34.07-24.45c-14.64 19.47-16.59 51.49-16.59 51.49s16.84-49.76 48.31-60.07c23.99-7.857 49.35-3.236 49.35-3.236s50.32-3.47 67.55 26.58c2.269 1.075 2.045-18.25-12.24-25.14l38.49-1.992c-28-11.9-101.8-10.9-101.8-10.9z" style="fill:#3eb34f;fill-rule:evenodd"/>
  <path id="path14" d="m252.3 148.4c-41.97 0.8506-70.95 16.23-88.62 40.05-33.52-3.605-61.38 32.9-61.38 32.9s26.31 13.16 44.66 2.133c-3.342 12.14-4.962 25.23-4.962 38.88 0 62.92 78.19 114 114 114 37.22 0 114-51.08 114-114 0-13.65-1.621-26.75-4.962-38.88 18.35 11.03 44.62-2.133 44.62-2.133s-27.82-36.5-61.33-32.9c-18.19-24.52-48.35-40.05-92.33-40.05-1.245 0-2.477-0.0248-3.7 0z" style="fill:#5d5d5d"/>
  <path id="path16" d="m330.5 429.3c0-22.8-13.15-36.83-13.15-36.83s5.261 19.29 4.385 36.83z" style="fill:#3b3b3b;fill-rule:evenodd"/>
  <path id="path18" d="m250.9 245.7c0.006 17.44-14.13 31.58-31.57 31.58s-31.58-14.14-31.57-31.58c0.006-17.44 14.13-31.58 31.57-31.58s31.58 14.14 31.57 31.58z" style="fill:#f7f7f7"/>
  <path id="path20" d="m324.3 245.7c0.006 17.44-14.13 31.58-31.57 31.58s-31.58-14.14-31.57-31.58c0.006-17.44 14.13-31.58 31.57-31.58s31.58 14.14 31.57 31.58z" style="fill:#f7f7f7"/>
  <path id="path22" d="m296.3 251.2c0.001 5.813-4.71 10.53-10.52 10.53-5.813 0-10.53-4.714-10.52-10.53 0.001-5.813 4.71-10.53 10.52-10.53 5.813 0 10.53 4.714 10.52 10.53z" style="fill:#111"/>
  <path id="path24" d="m237.8 251.2c0.001 5.813-4.71 10.53-10.52 10.53-5.813 0-10.53-4.714-10.52-10.53 0.002-5.813 4.71-10.53 10.52-10.53 5.813 0 10.53 4.714 10.52 10.53z" style="fill:#111"/>
  <path id="path26" d="m365.4 225-2.612 3.7c0.3467 4.285 0.4789 8.641 0.4789 13.06 0 62.92-76.8 114-114 114-28.85 0.00003-85.11-33.1-106-78.83 10.61 56.07 79.64 99.43 112.7 99.43 37.22 0 114-51.08 114-114 0-13.08-1.497-25.65-4.57-37.35z" style="opacity:.2"/>
  <path id="path28" d="m279.1 335.6c-3.194 5.534-9.054 8.134-13.09 5.803-4.036-2.329-4.715-8.705-1.518-14.24 3.196-5.533 9.054-8.134 13.09-5.803 4.034 2.329 4.715 8.705 1.518 14.24z" style="fill:#111"/>
  <path id="path30" d="m233.5 335.6c3.194 5.534 9.054 8.134 13.09 5.803 4.036-2.329 4.715-8.705 1.518-14.24-3.196-5.533-9.054-8.134-13.09-5.803-4.034 2.329-4.715 8.705-1.518 14.24z" style="fill:#111"/>
  <path id="path32" style="fill:#dede05" d="m151.3 374.9c-4.597-0.4813-8.745 2.842-9.226 7.437-0.0769 0.7351-0.027 1.456 0.0809 2.154-3.875 0.3797-7.103 3.463-7.524 7.485-0.4813 4.597 2.889 8.706 7.486 9.187 1.048 0.1098 2.042 0.003 3.003-0.2546-0.2367 4.42 3.031 8.327 7.483 8.793 4.597 0.4812 8.706-2.889 9.187-7.486 0.1204-1.149 0.008-2.275-0.3095-3.315 3.584-0.6345 6.503-3.576 6.9-7.375 0.4811-4.597-2.889-8.706-7.486-9.187-0.7334-0.0768-1.453-0.0696-2.148 0.0376-0.3797-3.875-3.424-7.056-7.446-7.476z"/>
 </g>
</svg>
