<?xml version="1.0" encoding="UTF-8" standalone="no"?>
<svg id="svg2" xmlns="http://www.w3.org/2000/svg" height="800" width="706" version="1.0">
 <path id="path2383" style="fill:#e7e7e7" d="m697.8 416.2c0.1 190.4-154.1 344.8-344.3 344.8s-344.4-154.4-344.3-344.8c-0.068-190.4 154.1-344.8 344.3-344.8s344.4 154.4 344.3 344.8z"/>
 <path id="path3173" style="fill:#5d5d5d;fill-rule:evenodd" d="m639 224.9c-17.18 20.87-19.85 54.16-14.5 67.02 3.947 9.481 30.13 14.14 55.19 16.48-9.809-29.83-23.55-57.88-40.68-83.48zm-615.2 93.6c-9.122 30.94-14.02 63.61-14.01 97.52-0.00638 17.71 1.347 35.12 3.922 52.09 26.02 15.12 59.8 64.92 88.61 68.67 36.07 4.709 28.23-69.06 6.272-73.77-21.94-4.7-31.35-39.3-32.91-77-1.05-25.3-14.89-49.8-51.85-67.5zm672.7 88.28c-9.272 4.32-17.89 10.8-25.09 20.11-37.63 48.65-68.99 15.7-106.6 32.95-37.63 17.27-12.54 61.22 1.568 103.6 10.22 30.68-8.286 91.76 14.01 110.7 71.37-63.04 116.3-155.3 116.3-258.1 0.00089-3.1-0.0159-6.141-0.098-9.22-0.0286 0.0127-0.0703-0.0127-0.098 0zm-467.2 29.5c15.68 48.65-18.82 31.39-25.09 64.34-6.272 32.95 105.1 42.38 123.9 109.9 18.82 67.5 103.5 31.39 101.9-6.278-1.568-37.66-56.46-54.95-42.34-76.92 14.11-21.97 42.34-67.5 42.34-67.5z"/>
 <path id="path3221" style="fill-opacity:.3137" d="m676.8 297.7c0.2414 5.292 0.3929 10.67 0.3929 16.03 0 190.2-154.2 344.5-344.2 344.5-148.5 0-275.3-94.38-323.4-226.4 8.342 182.8 159.3 328.8 343.8 328.8 190 0 344.2-154.4 344.2-344.5 0-41.53-7.348-81.39-20.82-118.3z"/>
 <path id="path3172" style="fill:#5d5d5d" d="m379.1 763.9c0 28.6 46.11 29.51 102.9 29.51s102.9 2.182 102.9-29.51c0-55.75-46.11-101-102.9-101s-102.9 45.24-102.9 101z"/>
 <path id="path3236" style="fill-opacity:.3137" d="m619.2 304.9c0 142.1-173.2 257.5-257.2 257.5-80.84 0-257.2-115.3-257.2-257.5 0-142.1 77.41-257.5 257.2-257.5s257.2 115.3 257.2 257.5z"/>
 <path id="path3174" style="fill-opacity:.3137;fill-rule:evenodd" d="m521.5 791.6c0-51.5-29.68-83.18-29.68-83.18s11.87 43.57 9.894 83.18z"/>
 <path id="path3155" style="fill:#e7e7e7" d="m344.8 6.164c-94.6 1.921-160 36.66-199.9 90.45-75.63-8.14-138.5 74.29-138.5 74.29 0 0.00001 59.37 29.72 100.8 4.817-7.54 27.41-11.2 56.97-11.2 87.8 0 142.1 176.4 257.5 257.2 257.5 83.98 0 257.2-115.4 257.2-257.5 0-30.83-3.658-60.37-11.2-87.8 41.39 24.9 100.7-4.817 100.7-4.817s-62.77-82.43-138.4-74.31c-41-55.3-109.1-90.41-208.3-90.41-2.81 0-5.588-0.05597-8.348 0z"/>
 <path id="path3185" style="fill:#5d5d5d;fill-rule:evenodd" d="m398 12.33c80.84 56.41-9.586 53.92-27.5 73.24-20.43 22.02-28.29 53.48-4.714 73.93 23.57 20.45 144.6 55.06 161.9-1.573 8.91-29.19-1.779-65.44-7.367-97.43-31.5-24.74-72-41.66-122.3-48.17z"/>
 <path id="path3157" style="fill:#fff" d="m341.6 225.7c0.0117 39.38-31.87 71.31-71.21 71.31s-71.23-31.93-71.21-71.31c-0.0117-39.38 31.87-71.31 71.21-71.31s71.23 31.93 71.21 71.31z"/>
 <path id="path3159" style="fill:#fff" d="m507.6 225.7c0.0117 39.38-31.87 71.31-71.21 71.31s-71.23-31.93-71.21-71.31c-0.0117-39.38 31.87-71.31 71.21-71.31s71.23 31.93 71.21 71.31z"/>
 <path id="path3161" style="fill:#111" d="m444.3 238.4c0.004 13.13-10.63 23.77-23.74 23.77-13.12 0-23.75-10.64-23.74-23.77-0.004-13.13 10.63-23.77 23.74-23.77 13.12 0 23.75 10.64 23.74 23.77z"/>
 <path id="path3163" style="fill:#111" d="m312.3 238.4c0.004 13.13-10.63 23.77-23.74 23.77-13.12 0-23.75-10.64-23.74-23.77-0.004-13.13 10.63-23.77 23.74-23.77 13.12 0 23.75 10.64 23.74 23.77z"/>
 <path id="path3210" style="opacity:.2;fill:#ed3146" d="m353 362.5c-62.42 0-113.1 41.59-113.1 92.81 0 9.501 1.773 18.7 5.01 27.33 40.07 24.22 80.08 38.38 108.1 38.38 28.91 0 68.39-13.63 107.7-37.37 3.498-8.944 5.403-18.52 5.403-28.41 0-51.22-50.73-92.81-113.1-92.81z"/>
 <path id="path3231" style="opacity:.2" d="m600.1 179.1-5.972 8.494c0.7823 9.674 1.081 19.51 1.081 29.49 0 142.1-173.3 257.5-257.2 257.5-65.09 0.00006-192-74.75-239.1-178 23.94 126.6 179.7 224.6 254.2 224.6 83.98 0 257.2-115.4 257.2-257.5 0-29.55-3.379-57.92-10.31-84.34z"/>
 <path id="path3329" style="fill:#5d5d5d" d="m332 763.9c0 28.6-46.11 29.51-102.9 29.51s-102.9 2.182-102.9-29.51c0-55.75 46.11-101 102.9-101s102.9 45.24 102.9 101z"/>
 <path id="path3331" style="fill-opacity:.3137;fill-rule:evenodd" d="m189.3 791.6c0-51.5 29.68-83.18 29.68-83.18s-11.87 43.57-9.894 83.18z"/>
 <path id="path2398" style="fill:#111" d="m405.5 441.8c-7.207 12.5-20.43 18.37-29.53 13.11-9.105-5.26-10.64-19.66-3.426-32.15 7.207-12.5 20.43-18.37 29.53-13.11 9.105 5.26 10.64 19.66 3.426 32.15z"/>
 <path id="path2412" style="fill:#111" d="m302.4 441.8c7.207 12.5 20.43 18.37 29.53 13.11 9.105-5.26 10.64-19.66 3.426-32.15-7.207-12.5-20.43-18.37-29.53-13.11-9.105 5.26-10.64 19.66-3.426 32.15z"/>
 <path id="path2399" style="fill:#3b3b3b;fill-rule:evenodd" d="m167.6 101.4c-23.05-4.178-48.72-67.64-39.29-80.22 9.429-12.58 82.88 14.05 84.86 42.47 1.736 25.07-16.93 42.94-45.57 37.75z"/>
 <path id="path3171" style="fill:#3b3b3b;fill-rule:evenodd" d="m535 101.4c23.05-4.178 48.72-67.64 39.29-80.22-9.429-12.58-82.88 14.05-84.86 42.47-1.736 25.07 16.93 42.94 45.57 37.75z"/>
</svg>
