<?xml version="1.0" encoding="UTF-8" standalone="no"?>
<svg id="svg8" xmlns="http://www.w3.org/2000/svg" height="800" viewBox="0 0 134.67291 211.66667" width="509" version="1.1">
 <path id="path3229" style="fill:#b76c3c;fill-rule:evenodd" d="m56.87 78.61c-5.07-34.16 29.21-36.46 25.35-50.07-4.01-14.14-19.61-10.15-27.72-12.17-8.11-2.03-6.92-9.531-2.03-13.54 3.719-3.045 34.13-4.691 41.24 17.59 9.902 31-24.34 28.42-24.34 57.5 0.000005 24.73-11.83 0.6766-12.51 0.6766z"/>
 <path id="path2383" style="fill:#b76c3c" d="m133.6 134.8a66.28 66.33 0 1 1 -132.6 0 66.28 66.33 0 1 1 132.6 0z"/>
 <path id="path3334" style="opacity:.4;fill-rule:evenodd" d="m85.49 8.376c1.783 2.25 3.245 4.911 4.246 8.045 9.902 31-24.33 28.42-24.33 57.5 0.000005 10.05-1.965 12.04-4.329 10.87 3.647 4.946 8.356 8.776 8.356-6.836-0.000005-29.09 34.23-26.52 24.33-57.5-1.69-5.26-4.66-9.18-8.28-12.07zm-36.62 3.444c0.5998 2.029 2.359 3.744 5.655 4.568 5.783 1.447 15.37-0.1616 21.85 3.913-5.703-9.055-18.71-6.148-25.88-7.943-0.5971-0.1494-1.129-0.3323-1.628-0.5374z"/>
 <path id="path3306" style="fill-opacity:.3137" d="m42.58 73.29c-7.711 3.119-14.7 7.647-20.66 13.27 1.741 2.965 4 5.691 6.863 7.744-6.605 8.652-10.52 19.45-10.52 31.17-0.000005 28.39 23.02 51.42 51.39 51.42 28.36 0 51.39-23.04 51.39-51.42-0.00001-11.61-3.863-22.31-10.35-30.92 1.999-1.369 3.699-3.059 5.152-4.938-5.676-6.094-12.47-11.13-20.07-14.75-0.1634 0.1938-0.3166 0.3902-0.4699 0.5879-1.158 1.493-1.908 2.881-2.333 4.182-6.997-3.576-14.92-5.594-23.31-5.594-8.211 0.000005-15.97 1.927-22.85 5.357-0.4366-1.232-1.161-2.544-2.249-3.947-0.5821-0.7502-1.247-1.472-1.963-2.166z"/>
 <path id="path2385" style="fill:#b07149" d="m18.1 55.99c-1.377 0.03058-2.395 0.3157-2.903 0.8899-1.873 2.117-0.3169 21.46 11.31 29.79-6.605 8.652-10.52 19.45-10.52 31.17 0 28.39 23.02 51.42 51.39 51.42 28.36 0 51.39-23.04 51.39-51.42 0-11.61-3.863-22.31-10.35-30.92 11.95-8.185 13.57-27.91 11.68-30.05-2.71-3.064-20.14 2.024-27.07 10.95-1.158 1.493-1.908 2.881-2.333 4.182-6.997-3.576-14.92-5.594-23.31-5.594-8.211 0-15.97 1.927-22.85 5.357-0.4366-1.232-1.161-2.544-2.249-3.947-5.622-7.25-18.2-11.97-24.16-11.84z"/>
 <path id="path3293" style="opacity:.2" d="m114.8 97.96c0.646 3.249 0.9902 6.605 0.9902 10.04-0.00001 28.39-23.02 51.42-51.39 51.42-21.27 0-39.53-12.95-47.34-31.41 4.71 23.53 25.48 41.29 50.38 41.29 28.36-0.00001 51.39-23.04 51.39-51.42 0-7.067-1.441-13.81-4.028-19.93z"/>
 <path id="path2387" style="fill:#fff" d="m64.67 110.6a14.71 14.72 0 1 1 -29.42 0 14.71 14.72 0 1 1 29.42 0z"/>
 <path id="path2391" style="fill:#fff" d="m98.82 110.6a14.71 14.72 0 1 1 -29.42 0 14.71 14.72 0 1 1 29.42 0z"/>
 <path id="path2393" style="stroke-width:.06715;fill:#111" d="m58.93 112.3a4.564 4.568 0 1 1 -9.129 0 4.564 4.568 0 1 1 9.129 0z"/>
 <path id="path2395" style="stroke-width:.06715;fill:#111" d="m83.95 112.3a4.564 4.568 0 1 1 -9.129 0 4.564 4.568 0 1 1 9.129 0z"/>
 <path id="path2397" style="stroke-width:.5372;fill:#111" d="m75.99 140c0 4.745-5.193 8.598-8.63 8.598-3.7 0-8.63-3.851-8.63-8.598 0-4.745 3.865-5.949 8.63-5.949 4.763 0 8.63 1.206 8.63 5.949z"/>
 <g id="g3178" style="opacity:.6;stroke:#000;fill:none" transform="matrix(.537 0 0 .5374 -108.8 -130.3)">
  <path id="path2400" style="stroke-linejoin:round;stroke:#000;stroke-linecap:round;stroke-width:4.271;fill:none" transform="matrix(.9375 0 0 .9355 13.99 33.33)" d="m392.8 487a39.03 39.03 0 0 1 -57.3 43.9"/>
  <path id="path3176" style="stroke-linejoin:round;stroke:#000;stroke-linecap:round;stroke-width:4.271;fill:none" transform="matrix(-.9375 0 0 .9355 642 33.33)" d="m392.8 487a39.03 39.03 0 0 1 -57.3 43.9"/>
 </g>
 <path id="path3339" style="opacity:.4" d="m125.7 103.3c1.719 5.895 2.635 12.14 2.635 18.59 0.00001 36.6-29.68 66.32-66.27 66.32-25.15 0-47.04-14.04-58.26-34.71 8.066 27.51 33.49 47.63 63.58 47.62 36.58 0 66.27-29.7 66.27-66.32 0-11.4-2.885-22.14-7.953-31.5z"/>
 <g id="g3188" style="opacity:.6" transform="matrix(.537 0 0 .5374 -107.4 -133.4)">
  <path id="path3182" style="stroke:#000;stroke-width:4;stroke-linecap:round;fill:none" d="m365.3 505.7c44.67-16.61 66.5 3.893 66.5 3.893"/>
  <path id="path3184" style="stroke:#000;stroke-width:4;stroke-linecap:round;fill:none" d="m358.9 516.8c31.63-8.958 52.35 13.89 52.35 13.89"/>
  <path id="path3186" style="stroke:#000;stroke-width:4;stroke-linecap:round;fill:none" d="m356.3 528.7c24.34-2.576 33.66 19.13 33.66 19.13"/>
 </g>
 <g id="g3193" style="opacity:.6" transform="matrix(-.537 0 0 .5374 242.5 -133.4)">
  <path id="path3195" style="stroke:#000;stroke-width:4;stroke-linecap:round;fill:none" d="m365.3 505.7c44.67-16.61 66.5 3.893 66.5 3.893"/>
  <path id="path3197" style="stroke:#000;stroke-width:4;stroke-linecap:round;fill:none" d="m358.9 516.8c31.63-8.958 52.35 13.89 52.35 13.89"/>
  <path id="path3199" style="stroke:#000;stroke-width:4;stroke-linecap:round;fill:none" d="m356.3 528.7c24.34-2.576 33.66 19.13 33.66 19.13"/>
 </g>
 <path id="path3231" style="opacity:.4;fill-rule:evenodd" d="m97.47 76.57c1.35-10.49 16.93-17.59 18.93-15.9s-2.5 17.95-11.2 21.99c-5 2.37-7.73-3.38-7.73-6.09z"/>
 <path id="path3233" style="opacity:.4;fill-rule:evenodd" d="m37.43 76.57c-1.35-10.49-16.91-17.59-18.93-15.9-2.028 1.692 2.507 17.95 11.15 21.99 5.071 2.368 7.776-3.383 7.776-6.089z"/>
 <path id="path3235" style="fill:#b76c3c" d="m112.5 199.3c0 11.58-9.392 11.16-20.96 11.16s-20.96 0.4141-20.96-11.16c0-11.58 9.392-20.97 20.96-20.97s20.96 9.399 20.96 20.97z"/>
 <path id="path3238" style="fill:#b76c3c" d="m64.17 199.3c0 11.58-9.392 11.16-20.96 11.16-6.433 0-12.19 0.128-16.04-1.749-3.071-1.498-4.921-4.275-4.921-9.415 0-11.58 9.392-20.97 20.96-20.97s20.96 9.399 20.96 20.97z"/>
 <path id="path3327" style="fill-opacity:.3137" d="m102.6 181.4c2.536 3.482 4.044 7.776 4.044 12.41 0 6.701-3.133 12.66-8.007 16.53 8.109-0.2687 13.91-1.935 13.91-11.07 0-7.54-3.978-14.16-9.951-17.85z"/>
 <path id="path3332" style="fill-opacity:.3137" d="m54.22 181.4c2.524 3.493 4.028 7.792 4.028 12.41 0.000005 6.701-3.133 12.66-8.007 16.53 8.109-0.2687 13.91-1.935 13.91-11.07 0-7.54-3.978-14.16-9.951-17.85z"/>
 <path id="path3349" style="fill-opacity:.3137" d="m73.41 188.8c-1.779 3.082-2.803 6.669-2.803 10.48 0 9.41 6.202 10.89 14.74 11.12-8.474-3.535-12.78-11.94-11.93-21.6z"/>
 <g id="g2469" style="opacity:.6;stroke:#000" transform="matrix(-.537 0 0 .5374 243 -129.2)">
  <path id="path2471" style="stroke:#000;stroke-width:4;stroke-linecap:round;fill:none" d="m357.3 628.7c-3.503-11.33 0.5004-24.55 0.5004-24.55"/>
  <path id="path2473" style="stroke:#000;stroke-width:4;stroke-linecap:round;fill:none" d="m375.4 631.2c4.293-18.26-0.6133-32.74-0.6133-32.74"/>
  <path id="path2475" style="stroke:#000;stroke-width:4;stroke-linecap:round;fill:none" d="m393.6 629.3c8.813-13.85 1.259-25.18 1.259-25.18"/>
 </g>
 <g id="g2508" style="opacity:.6;stroke:#000" transform="matrix(.537 0 0 .5374 -107.8 -129.2)">
  <path id="path2510" style="stroke:#000;stroke-width:4;stroke-linecap:round;fill:none" d="m357.3 628.7c-3.503-11.33 0.5004-24.55 0.5004-24.55"/>
  <path id="path2512" style="stroke:#000;stroke-width:4;stroke-linecap:round;fill:none" d="m375.4 631.2c4.293-18.26-0.6133-32.74-0.6133-32.74"/>
  <path id="path2514" style="stroke:#000;stroke-width:4;stroke-linecap:round;fill:none" d="m393.6 629.3c8.813-13.85 1.259-25.18 1.259-25.18"/>
 </g>
</svg>
