<?xml version="1.0" encoding="UTF-8" standalone="no"?>
<svg id="svg2" xmlns="http://www.w3.org/2000/svg" height="800" width="596" version="1.0">
 <g id="g4894">
  <path id="path3205" style="fill:#885d3f;fill-rule:evenodd" d="m290.5 157.6c3-62.05 79.2-152.6 92.4-153.6s-28.4 143.4-39.6 153.6c-11.17 10.17-51.79 3.051-52.81 0z"/>
  <path id="path3257" style="opacity:.4;fill-rule:evenodd" d="m382.9 4.017c-1.048 0.08071-2.543 0.7581-4.316 1.907-1.937 26.79-46.53 134.8-57.19 142.6-6.016 4.43-18.78 3.948-30.22 1.907-0.3128 2.4-0.5839 4.792-0.6983 7.119 1.016 3.051 41.64 10.17 52.81 0s52.81-154.6 39.6-153.6z"/>
  <path id="path2383" style="fill:#b9764a" d="m547.9 386.2a250.7 251 0 1 1 -501.3 0 250.7 251 0 1 1 501.3 0z"/>
  <path id="path3276" style="fill-opacity:.3137" d="m501.1 344.3a193.8 194.1 0 1 1 -387.5 0 193.8 194.1 0 1 1 387.5 0z"/>
  <path id="path3339" style="fill-opacity:.3137" d="m517.8 266.8c6.503 22.31 9.964 45.95 9.964 70.36 0.00002 138.5-112.3 251-250.6 251-95.11 0-177.9-53.15-220.4-131.4 30.51 104.1 126.7 180.3 240.5 180.3 138.3 0 250.6-112.4 250.6-251 0-43.14-10.91-83.78-30.08-119.2z"/>
  <path id="path3235" style="fill:#b9764a" d="m468 629.9c0 43.81-35.52 42.25-79.27 42.25s-79.27 1.567-79.27-42.25c0-43.81 35.52-79.39 79.27-79.39s79.27 35.57 79.27 79.39z"/>
  <path id="path3238" style="fill:#b9764a" d="m285.2 629.9c0 43.81-35.52 42.25-79.27 42.25-24.33 0-46.1 0.4845-60.67-6.619-11.61-5.671-18.61-16.18-18.61-35.64 0-43.81 35.52-79.39 79.27-79.39s79.27 35.57 79.27 79.39z"/>
  <g id="g3263" transform="matrix(-2.031 0 0 2.034 960.9 -613)">
   <path id="path3265" style="fill:none" d="m357.3 628.7c-3.503-11.33 0.5004-24.55 0.5004-24.55"/>
   <path id="path3267" style="fill:none" d="m375.4 631.2c4.293-18.26-0.6133-32.74-0.6133-32.74"/>
   <path id="path3269" style="fill:none" d="m393.6 629.3c8.813-13.85 1.259-25.18 1.259-25.18"/>
  </g>
  <path id="path2418" style="fill:#b9764a" d="m491 318.9a193.8 194.1 0 1 1 -387.5 0 193.8 194.1 0 1 1 387.5 0z"/>
  <path id="path3251" style="opacity:.2" d="m474.1 243.6c3.099 13.77 4.761 28.07 4.761 42.78 0 107.1-86.83 194.1-193.8 194.1-78.76 0-146.5-47.17-176.8-114.8 19.41 86.63 96.7 151.4 189 151.4 106.9 0 193.8-86.95 193.8-194.1 0-28.29-6.058-55.14-16.95-79.39z"/>
  <path id="path2387" style="fill:#f7f7f7" d="m288.9 282.2a55.63 55.71 0 1 1 -111.3 0 55.63 55.71 0 1 1 111.3 0z"/>
  <path id="path2391" style="fill:#f7f7f7" d="m418.1 282.2a55.63 55.71 0 1 1 -111.3 0 55.63 55.71 0 1 1 111.3 0z"/>
  <path id="path2393" style="fill:#111" d="m267.2 288.8a17.26 17.29 0 1 1 -34.53 0 17.26 17.29 0 1 1 34.53 0z"/>
  <path id="path2395" style="fill:#111" d="m361.8 288.8a17.26 17.29 0 1 1 -34.53 0 17.26 17.29 0 1 1 34.53 0z"/>
  <path id="path2397" style="fill:#111" d="m348.8 413.3c0 28.03-30.65 50.77-50.92 50.77-21.83 0-50.92-22.74-50.92-50.77s22.81-35.15 50.92-35.15 50.92 7.121 50.92 35.15z"/>
  <path id="path3327" style="fill-opacity:.3137" d="m430.4 562.4c9.592 13.18 15.3 29.43 15.3 46.97 0.00002 25.36-11.85 47.92-30.28 62.55 30.67-1.017 52.6-7.322 52.6-41.9 0-28.54-15.04-53.58-37.63-67.57z"/>
  <g id="g2410" transform="matrix(2.031 0 0 2.034 -364 -613)">
   <path id="path2412" style="fill:none" d="m357.3 628.7c-3.503-11.33 0.5004-24.55 0.5004-24.55"/>
   <path id="path2414" style="fill:none" d="m375.4 631.2c4.293-18.26-0.6133-32.74-0.6133-32.74"/>
   <path id="path2416" style="fill:none" d="m393.6 629.3c8.813-13.85 1.259-25.18 1.259-25.18"/>
  </g>
  <path id="path3332" style="fill-opacity:.3137" d="m247.6 562.4c9.546 13.22 15.23 29.49 15.23 46.99 0.00002 25.36-11.85 47.92-30.28 62.55 30.67-1.017 52.6-7.322 52.6-41.9 0-28.54-15.04-53.58-37.63-67.57z"/>
  <path id="path3349" style="fill-opacity:.3137" d="m320.1 590.4c-6.729 11.66-10.6 25.24-10.6 39.66 0 35.62 23.46 41.21 55.73 42.08-32.05-13.38-48.34-45.18-45.13-81.75z"/>
  <path id="path3201" style="fill:#885d3f;fill-rule:evenodd" d="m160.9 178.9c-111.5-7.8-169.6 126.8-154.4 166.4 12.37 32.3 80.8 64.8 78.04 35.2-8.96-96 111.2-199.1 76.36-201.6z"/>
  <path id="path3203" style="fill:#885d3f;fill-rule:evenodd" d="m434.9 178.9c111.5-7.88 169.6 126.7 154.4 166.4-12.38 32.24-80.81 64.76-78.05 35.19 8.957-95.96-111.2-199.1-76.37-201.6z"/>
  <path id="path3262" style="opacity:.4;fill-rule:evenodd" d="m445.2 178.6c103.4 20.93 131.3 157.5 109.2 192.3-4.911 7.721-13.72 14.62-23.8 20.15 20.47-4.741 50.92-25.24 58.78-45.7 14.7-38.4-39.4-165.9-144.2-166.7z"/>
  <path id="path3288" style="fill:#cdcdcd;fill-rule:evenodd" d="m226.9 757.2 147.8-32.06s25.23 40.58 54.47 17.46c29.25-23.12-11.66-46.09-11.66-46.09s41.07-22.44 0.6993-42.59c-40.36-20.14-53.82 32.2-53.82 32.2l-143.2 25.32s-37.25-50.02-64.61-17 10.18 53.7 10.18 53.7-30.12 26.22 8.303 43.81c38.41 17.58 49.86-29.98 51.89-34.74z"/>
  <path id="path3300" style="fill:#888;fill-rule:evenodd" d="m199.7 690.9c4.017 3.834 7.793 7.764 11.47 11.08 0.4791-0.0846 0.955-0.188 1.434-0.2726-3.534-3.539-7.919-7.465-12.9-10.81zm221.2-35.57c0.6771 0.9375 1.291 1.946 1.851 2.947 4.092 12.24-12.99 22.27-19.31 29.09 2.289 4.495 7.907 7.475 12.42 11.35 3.887-2.248 38.73-24.77 5.035-43.39zm-272.2 73.1c1.847 4.534 4.686 8.388 7.594 11.43 3.861-4.593-3.193-7.735-7.594-11.43zm272.4-29.59c0.8969 1.044 1.667 2.211 2.269 3.45 12.26 15.68-8.075 34.94-24.13 33.97-15.75-0.3437-22.02-15.59-31.93-25.18-49.27 10.68-102.1 22.03-151.3 32.71-5.031 8.24-6.792 18.98-13.5 26.56-10.05 15.94-32.35 14.3-45.8 3.401-0.2675-0.144-0.4864-0.3521-0.7419-0.5058 1.374 6.36 6.599 13.02 19.12 18.75 38.41 17.58 49.86-30 51.87-34.76l151.3-32.71c-0.00002 0.00002 21.71 41.27 50.94 18.14 23.76-18.79 1.18-37.47-8.11-43.81z"/>
 </g>
</svg>
